<svg id="visual" viewBox="0 0 900 600" width="900" height="600" xmlns="http://www.w3.org/2000/svg" xmlns:xlink="http://www.w3.org/1999/xlink" version="1.1"><rect x="0" y="0" width="900" height="600" fill="#001220"></rect><path d="M0 457L21.5 463.3C43 469.7 86 482.3 128.8 486.5C171.7 490.7 214.3 486.3 257.2 479.5C300 472.7 343 463.3 385.8 461C428.7 458.7 471.3 463.3 514.2 460.7C557 458 600 448 642.8 445.5C685.7 443 728.3 448 771.2 456C814 464 857 475 878.5 480.5L900 486L900 601L878.5 601C857 601 814 601 771.2 601C728.3 601 685.7 601 642.8 601C600 601 557 601 514.2 601C471.3 601 428.7 601 385.8 601C343 601 300 601 257.2 601C214.3 601 171.7 601 128.8 601C86 601 43 601 21.5 601L0 601Z" fill="#c76311"></path><path d="M0 508L21.5 508.2C43 508.3 86 508.7 128.8 507.2C171.7 505.7 214.3 502.3 257.2 507.5C300 512.7 343 526.3 385.8 531.5C428.7 536.7 471.3 533.3 514.2 533.7C557 534 600 538 642.8 530C685.7 522 728.3 502 771.2 493C814 484 857 486 878.5 487L900 488L900 601L878.5 601C857 601 814 601 771.2 601C728.3 601 685.7 601 642.8 601C600 601 557 601 514.2 601C471.3 601 428.7 601 385.8 601C343 601 300 601 257.2 601C214.3 601 171.7 601 128.8 601C86 601 43 601 21.5 601L0 601Z" fill="#e28925"></path><path d="M0 544L21.5 549.5C43 555 86 566 128.8 568C171.7 570 214.3 563 257.2 556.3C300 549.7 343 543.3 385.8 547.5C428.7 551.7 471.3 566.3 514.2 565C557 563.7 600 546.3 642.8 547C685.7 547.7 728.3 566.3 771.2 572.8C814 579.3 857 573.7 878.5 570.8L900 568L900 601L878.5 601C857 601 814 601 771.2 601C728.3 601 685.7 601 642.8 601C600 601 557 601 514.2 601C471.3 601 428.7 601 385.8 601C343 601 300 601 257.2 601C214.3 601 171.7 601 128.8 601C86 601 43 601 21.5 601L0 601Z" fill="#fcaf3c"></path></svg>