<?xml version="1.0" standalone="no"?>
<!DOCTYPE svg PUBLIC "-//W3C//DTD SVG 20010904//EN"
 "http://www.w3.org/TR/2001/REC-SVG-20010904/DTD/svg10.dtd">
<svg version="1.0" xmlns="http://www.w3.org/2000/svg"
 width="512.000000pt" height="512.000000pt" viewBox="0 0 512.000000 512.000000"
 preserveAspectRatio="xMidYMid meet">

<g transform="translate(0.000000,512.000000) scale(0.100000,-0.100000)"
fill="#000000" stroke="none">
<path d="M2380 4954 c-537 -51 -997 -242 -1386 -578 -441 -379 -717 -883 -810
-1478 -25 -158 -25 -518 0 -676 74 -473 259 -879 561 -1230 382 -445 916 -731
1515 -814 123 -17 478 -16 600 1 698 96 1291 459 1679 1026 465 680 549 1542
224 2304 -181 425 -491 794 -888 1056 -329 217 -705 349 -1100 385 -102 9
-313 11 -395 4z m-69 -1385 c131 -66 207 -219 178 -357 -17 -86 -43 -128 -135
-223 -46 -47 -84 -88 -84 -92 0 -4 336 -8 748 -9 l747 -3 50 -27 c62 -32 129
-103 158 -166 31 -66 31 -198 0 -264 -29 -63 -96 -134 -158 -166 l-50 -27
-747 -3 c-412 -1 -748 -5 -748 -9 0 -4 38 -46 85 -93 109 -111 139 -172 139
-280 0 -206 -173 -355 -381 -329 -107 14 -123 27 -540 443 -452 451 -448 446
-448 596 0 150 -4 145 448 596 417 416 433 429 540 443 66 8 148 -4 198 -30z"/>
</g>
</svg>
